<svg
  width="157"
  height="22"
  viewBox="0 0 157 22"
  fill="none"
  xmlns="http://www.w3.org/2000/svg"
>
  <path
    d="M28.1666 3.354H33.843C39.3398 3.354 43.9744 5.69827 43.9744 12.0097C43.9744 17.5638 39.4476 20.5573 34.346 20.5573H28.1666V3.354ZM31.9389 17.0229H33.9149C37.4357 17.0229 40.0583 15.6884 40.0583 11.7933C40.0583 8.40319 37.3638 6.85237 34.1664 6.85237H31.9389V17.0229Z"
    fill="white"
  />
  <path
    d="M45.9144 8.72798H49.543V10.6395H49.5789C50.3693 9.19683 51.3753 8.43945 52.956 8.43945C53.3512 8.43945 53.8183 8.47552 54.1776 8.54765V11.8657C53.6746 11.7214 53.1716 11.6132 52.6327 11.6132C49.8663 11.6132 49.543 13.2001 49.543 15.5804V20.5214H45.9144V8.72798Z"
    fill="white"
  />
  <path
    d="M66.5004 18.5017C65.3508 19.9804 63.4467 20.846 61.5425 20.846C57.9139 20.846 55.0039 18.4296 55.0039 14.6427C55.0039 10.8919 57.9139 8.43945 61.5425 8.43945C64.9197 8.43945 67.0393 10.8558 67.0393 14.6427V15.7968H58.6325C58.9199 17.1673 59.9618 18.069 61.3629 18.069C62.5485 18.069 63.3389 17.4558 63.9496 16.6263L66.5004 18.5017ZM63.4107 13.2722C63.4467 12.046 62.4766 11.0362 61.1833 11.0362C59.6025 11.0362 58.7043 12.1181 58.6325 13.2722H63.4107Z"
    fill="white"
  />
  <path
    d="M76.2007 19.0427H76.1648C75.3744 20.305 73.9014 20.8099 72.4284 20.8099C70.2368 20.8099 68.2609 19.5476 68.2609 17.1673C68.2609 13.0918 73.1828 13.0197 76.2007 13.0197C76.2007 11.7214 75.1229 10.8918 73.8654 10.8918C72.6799 10.8918 71.6739 11.4328 70.9194 12.2984L68.9794 10.3148C70.3087 9.0525 72.2487 8.40332 74.1529 8.40332C78.3922 8.40332 79.5059 10.5673 79.5059 14.4984V20.4853H76.1648V19.0427H76.2007ZM75.3025 15.364C74.1888 15.364 71.7098 15.4722 71.7098 17.0591C71.7098 17.9246 72.6439 18.3574 73.4343 18.3574C74.8714 18.3574 76.2007 17.6 76.2007 16.1574V15.364H75.3025Z"
    fill="white"
  />
  <path
    d="M81.8052 8.72791H85.2901V10.3148H85.3261C85.7931 9.37709 86.9787 8.40332 88.775 8.40332C90.4277 8.40332 91.757 9.08857 92.4036 10.5312C93.2659 9.01644 94.3796 8.40332 96.14 8.40332C99.3375 8.40332 100.308 10.6755 100.308 13.5246V20.4853H96.643V13.6328C96.643 12.5509 96.2478 11.6132 95.0622 11.6132C93.4096 11.6132 92.8707 12.8033 92.8707 14.2459V20.4853H89.2421V14.282C89.2421 13.4164 89.278 11.6492 87.6254 11.6492C85.7213 11.6492 85.4338 13.1279 85.4338 14.6427V20.5214H81.8052V8.72791Z"
    fill="white"
  />
  <path
    d="M102.571 3.354H106.343V9.73761H113.672V3.354H117.445V20.5573H113.672V13.0917H106.343V20.5212H102.571V3.354Z"
    fill="white"
  />
  <path
    d="M125.6 8.43945C129.229 8.43945 132.139 10.8558 132.139 14.6427C132.139 18.3936 129.229 20.846 125.6 20.846C121.971 20.846 119.061 18.4296 119.061 14.6427C119.061 10.8558 121.971 8.43945 125.6 8.43945ZM125.6 17.6001C127.396 17.6001 128.51 16.3739 128.51 14.6067C128.51 12.8395 127.432 11.6132 125.6 11.6132C123.804 11.6132 122.69 12.8395 122.69 14.6067C122.69 16.4099 123.804 17.6001 125.6 17.6001Z"
    fill="white"
  />
  <path
    d="M140.438 12.1903C139.899 11.5411 139.216 11.1804 138.318 11.1804C137.707 11.1804 136.989 11.4329 136.989 12.1542C136.989 13.8854 143.096 12.4067 143.096 16.9149C143.096 19.9083 140.186 20.8099 137.671 20.8099C136.019 20.8099 134.222 20.4132 133.037 19.2231L135.228 16.7706C135.911 17.6001 136.701 18.069 137.779 18.069C138.605 18.069 139.432 17.8526 139.432 17.2034C139.432 15.2919 133.324 16.9149 133.324 12.4067C133.324 9.62962 135.803 8.43945 138.246 8.43945C139.791 8.43945 141.516 8.83617 142.593 9.99027L140.438 12.1903Z"
    fill="white"
  />
  <path
    d="M152.868 11.6492H149.671V15.5803C149.671 16.8426 149.815 17.7803 151.395 17.7803C151.791 17.7803 152.545 17.7442 152.868 17.4557V20.4852C152.078 20.7738 151.18 20.8459 150.318 20.8459C147.911 20.8459 146.042 19.8361 146.042 17.2754V11.6492H143.707V8.72785H146.042V5.22949H149.671V8.72785H152.868V11.6492Z"
    fill="white"
  />
  <path
    d="M21.6638 16.59C19.9034 17.5638 17.8915 18.1048 15.7359 18.0687C9.34095 17.9245 4.31121 12.7671 4.41899 6.49168C4.45491 4.36381 5.10159 2.38021 6.1794 0.721191C2.76636 2.63267 0.431115 6.20316 0.359261 10.3507C0.215554 16.59 5.28123 21.7835 11.6403 21.9278C15.8796 21.9999 19.5801 19.872 21.6638 16.59Z"
    fill="white"
  />
  <path
    d="M12.3229 0.216309C10.5984 0.216309 8.98169 0.649095 7.54461 1.44254C6.64645 2.92123 6.14347 4.61631 6.07162 6.34746C5.96384 11.7934 10.3828 16.3016 15.8796 16.4097C17.5323 16.4097 19.4005 16.013 20.8375 15.2196C21.6998 13.7409 22.2027 12.0098 22.2027 10.1704C22.2746 4.68844 17.8197 0.216309 12.3229 0.216309Z"
    fill="#0073EC"
  />
  <path
    d="M154.126 3.42616C154.126 3.24583 154.162 3.0655 154.234 2.88517C154.305 2.70484 154.413 2.59665 154.521 2.45238C154.629 2.34419 154.773 2.23599 154.952 2.16386C155.096 2.09173 155.276 2.05566 155.455 2.05566C155.635 2.05566 155.814 2.09173 155.958 2.16386C156.102 2.23599 156.246 2.30812 156.389 2.45238C156.497 2.56058 156.605 2.70484 156.677 2.88517C156.749 3.0655 156.784 3.20976 156.784 3.42616C156.784 3.60648 156.749 3.78681 156.677 3.96714C156.605 4.1114 156.497 4.25566 156.389 4.39993C156.281 4.50812 156.138 4.61632 155.958 4.68845C155.814 4.76058 155.635 4.79665 155.455 4.79665C155.276 4.79665 155.096 4.76058 154.952 4.68845C154.808 4.61632 154.665 4.54419 154.521 4.39993C154.413 4.29173 154.305 4.14747 154.234 3.96714C154.162 3.78681 154.126 3.60648 154.126 3.42616ZM154.377 3.42616C154.377 3.57042 154.413 3.75075 154.449 3.85894C154.521 4.0032 154.593 4.1114 154.665 4.2196C154.773 4.3278 154.88 4.39993 155.024 4.47206C155.168 4.54419 155.311 4.54419 155.455 4.54419C155.599 4.54419 155.743 4.50812 155.886 4.47206C156.03 4.39993 156.138 4.3278 156.246 4.2196C156.353 4.1114 156.425 4.0032 156.461 3.85894C156.533 3.71468 156.533 3.57042 156.533 3.42616C156.533 3.28189 156.497 3.10157 156.461 2.99337C156.389 2.84911 156.317 2.74091 156.246 2.63271C156.138 2.52452 156.03 2.45239 155.886 2.38025C155.743 2.30812 155.599 2.30812 155.455 2.30812C155.311 2.30812 155.168 2.34419 155.024 2.38025C154.88 2.45239 154.773 2.52452 154.665 2.63271C154.557 2.74091 154.485 2.84911 154.449 2.99337C154.377 3.10157 154.377 3.24583 154.377 3.42616ZM154.952 2.63271H155.527C155.886 2.63271 156.066 2.77698 156.066 3.0655C156.066 3.20976 156.03 3.31796 155.958 3.39009C155.886 3.46222 155.778 3.49829 155.671 3.49829L156.102 4.18353H155.85L155.419 3.49829H155.168V4.18353H154.916L154.952 2.63271ZM155.168 3.31796H155.419C155.455 3.31796 155.527 3.31796 155.563 3.31796C155.599 3.31796 155.671 3.31796 155.707 3.28189C155.743 3.28189 155.778 3.24583 155.814 3.20976C155.85 3.1737 155.85 3.13763 155.85 3.0655C155.85 3.02943 155.85 2.9573 155.814 2.92124C155.778 2.88517 155.778 2.84911 155.743 2.84911C155.707 2.84911 155.671 2.81304 155.635 2.81304C155.599 2.81304 155.563 2.81304 155.527 2.81304H155.204L155.168 3.31796Z"
    fill="white"
  />
</svg>